<svg width="187" height="136" viewBox="0 0 187 136" fill="none" xmlns="http://www.w3.org/2000/svg">
<rect width="187" height="136" fill="white"/>
<path d="M148.07 34.5146C148.07 26.8833 154.257 20.697 161.888 20.697V20.697C169.519 20.697 175.706 26.8834 175.706 34.5146V61.9451C175.706 69.5763 169.519 75.7627 161.888 75.7627V75.7627C154.257 75.7627 148.07 69.5763 148.07 61.9451V48.4501V34.5146Z" fill="black"/>
<path d="M120.435 64.7495C116.806 64.7495 113.213 64.1798 109.86 63.0729C106.507 61.9659 103.46 60.3435 100.894 58.2982C98.3281 56.2529 96.2925 53.8247 94.9037 51.1523C93.5149 48.48 92.8001 45.6158 92.8001 42.7233C92.8001 39.8307 93.5149 36.9665 94.9037 34.2942C96.2925 31.6218 98.3281 29.1937 100.894 27.1483C103.46 25.103 106.507 23.4806 109.86 22.3737C113.213 21.2667 116.806 20.697 120.435 20.697L120.435 42.7233L120.435 64.7495Z" fill="black"/>
<path d="M120.435 75.7627C124.064 75.7627 127.658 75.1929 131.011 74.086C134.364 72.9791 137.41 71.3566 139.976 69.3113C142.542 67.266 144.578 64.8378 145.967 62.1655C147.356 59.4931 148.07 56.6289 148.07 53.7364C148.07 50.8439 147.356 47.9797 145.967 45.3073C144.578 42.635 142.542 40.2068 139.976 38.1615C137.41 36.1162 134.364 34.4937 131.011 33.3868C127.658 32.2799 124.064 31.7101 120.435 31.7101L120.435 53.7364L120.435 75.7627Z" fill="black"/>
<path d="M65.1649 34.5146C65.1649 26.8833 71.3513 20.697 78.9825 20.697V20.697C86.6138 20.697 92.8001 26.8834 92.8001 34.5146V61.9451C92.8001 69.5763 86.6138 75.7627 78.9825 75.7627V75.7627C71.3513 75.7627 65.1649 69.5763 65.1649 61.9451V48.4501V34.5146Z" fill="black"/>
<path fill-rule="evenodd" clip-rule="evenodd" d="M56.7279 53.8364C62.4091 45.959 66.2703 35.2514 66.2703 20.697C11 20.697 11 46.688 11 75.7627C11 75.7627 28.7994 75.7627 44.1963 65.6992C44.1737 65.4149 44.1622 65.1276 44.1622 64.8376C44.1622 58.7326 49.1318 53.7364 55.2368 53.7364C55.7424 53.7364 56.2401 53.7705 56.7279 53.8364Z" fill="black"/>
<path d="M47.6995 64.6984C47.6995 60.6081 51.0291 57.2606 55.1195 57.2606V57.2606C59.1947 57.2606 62.512 60.5642 62.512 64.6394V64.6394C62.512 68.7146 59.1512 72.0182 55.076 72.0182V72.0182C51.0334 72.0182 47.6995 68.741 47.6995 64.6984V64.6984V64.6984Z" fill="black"/>
<path d="M17.84 93.98H13.256V96.536H16.832V97.436H13.256V101H12.296V93.08H17.84V93.98ZM21.7348 97.124C21.7348 96.676 21.6148 96.332 21.3748 96.092C21.1348 95.844 20.7948 95.72 20.3548 95.72C19.9388 95.72 19.5868 95.812 19.2988 95.996C19.0108 96.172 18.7988 96.46 18.6628 96.86L17.8828 96.38C18.0428 95.932 18.3388 95.572 18.7708 95.3C19.2028 95.02 19.7388 94.88 20.3788 94.88C20.8108 94.88 21.2028 94.956 21.5548 95.108C21.9068 95.252 22.1828 95.476 22.3828 95.78C22.5908 96.076 22.6948 96.46 22.6948 96.932V99.836C22.6948 100.124 22.8468 100.268 23.1508 100.268C23.3028 100.268 23.4508 100.248 23.5948 100.208L23.5468 100.964C23.3868 101.044 23.1788 101.084 22.9228 101.084C22.6908 101.084 22.4828 101.04 22.2988 100.952C22.1148 100.864 21.9708 100.732 21.8668 100.556C21.7628 100.372 21.7108 100.144 21.7108 99.872V99.752L21.9508 99.788C21.8548 100.1 21.6908 100.356 21.4588 100.556C21.2268 100.748 20.9668 100.892 20.6788 100.988C20.3908 101.076 20.1068 101.12 19.8268 101.12C19.4748 101.12 19.1468 101.06 18.8428 100.94C18.5388 100.82 18.2948 100.64 18.1108 100.4C17.9348 100.152 17.8468 99.848 17.8468 99.488C17.8468 99.04 17.9948 98.672 18.2908 98.384C18.5948 98.088 19.0148 97.888 19.5508 97.784L21.9268 97.316V98.108L19.9948 98.504C19.6028 98.584 19.3108 98.696 19.1188 98.84C18.9268 98.984 18.8308 99.184 18.8308 99.44C18.8308 99.688 18.9268 99.892 19.1188 100.052C19.3188 100.204 19.5988 100.28 19.9588 100.28C20.1908 100.28 20.4108 100.252 20.6188 100.196C20.8348 100.132 21.0268 100.04 21.1948 99.92C21.3628 99.792 21.4948 99.636 21.5908 99.452C21.6868 99.26 21.7348 99.036 21.7348 98.78V97.124ZM26.9117 94.88C27.3277 94.88 27.6917 94.944 28.0037 95.072C28.3237 95.2 28.5997 95.384 28.8317 95.624C29.0637 95.864 29.2517 96.148 29.3957 96.476L28.4837 96.908C28.3557 96.524 28.1597 96.232 27.8957 96.032C27.6397 95.824 27.3037 95.72 26.8877 95.72C26.4877 95.72 26.1437 95.812 25.8557 95.996C25.5677 96.172 25.3477 96.432 25.1957 96.776C25.0437 97.112 24.9677 97.52 24.9677 98C24.9677 98.472 25.0437 98.88 25.1957 99.224C25.3477 99.568 25.5677 99.832 25.8557 100.016C26.1437 100.192 26.4877 100.28 26.8877 100.28C27.1997 100.28 27.4677 100.232 27.6917 100.136C27.9237 100.04 28.1117 99.9 28.2557 99.716C28.4077 99.532 28.5117 99.308 28.5677 99.044L29.4557 99.356C29.3197 99.724 29.1317 100.04 28.8917 100.304C28.6597 100.568 28.3757 100.772 28.0397 100.916C27.7117 101.052 27.3357 101.12 26.9117 101.12C26.3517 101.12 25.8517 100.996 25.4117 100.748C24.9717 100.5 24.6277 100.144 24.3797 99.68C24.1317 99.208 24.0077 98.648 24.0077 98C24.0077 97.352 24.1317 96.796 24.3797 96.332C24.6277 95.86 24.9717 95.5 25.4117 95.252C25.8517 95.004 26.3517 94.88 26.9117 94.88ZM32.7146 101.12C32.3306 101.12 31.9666 101.048 31.6226 100.904C31.2866 100.76 31.0106 100.528 30.7946 100.208C30.5866 99.88 30.4826 99.456 30.4826 98.936V95H31.4426V98.684C31.4426 99.292 31.5746 99.712 31.8386 99.944C32.1026 100.168 32.4746 100.28 32.9546 100.28C33.1786 100.28 33.3986 100.244 33.6146 100.172C33.8306 100.092 34.0226 99.972 34.1906 99.812C34.3666 99.644 34.5026 99.432 34.5986 99.176C34.7026 98.92 34.7546 98.616 34.7546 98.264V95H35.7146V101H34.8746L34.8146 100.088C34.6066 100.448 34.3226 100.712 33.9626 100.88C33.6106 101.04 33.1946 101.12 32.7146 101.12ZM38.2608 92.24V99.476C38.2608 99.78 38.3168 99.992 38.4288 100.112C38.5408 100.224 38.7208 100.28 38.9688 100.28C39.1288 100.28 39.2608 100.268 39.3648 100.244C39.4688 100.22 39.6088 100.176 39.7848 100.112L39.6288 100.952C39.5008 101.008 39.3608 101.048 39.2088 101.072C39.0568 101.104 38.9008 101.12 38.7408 101.12C38.2528 101.12 37.8888 100.988 37.6488 100.724C37.4168 100.46 37.3008 100.056 37.3008 99.512V92.24H38.2608ZM41.5984 93.296V99.344C41.5984 99.64 41.6824 99.86 41.8504 100.004C42.0184 100.148 42.2344 100.22 42.4984 100.22C42.7304 100.22 42.9304 100.18 43.0984 100.1C43.2664 100.02 43.4184 99.912 43.5544 99.776L43.8904 100.58C43.7064 100.748 43.4864 100.88 43.2304 100.976C42.9824 101.072 42.6944 101.12 42.3664 101.12C42.0624 101.12 41.7784 101.068 41.5144 100.964C41.2504 100.852 41.0384 100.68 40.8784 100.448C40.7264 100.208 40.6464 99.896 40.6384 99.512V93.56L41.5984 93.296ZM43.7824 95V95.828H39.4384V95H43.7824ZM48.1138 97.124C48.1138 96.676 47.9938 96.332 47.7538 96.092C47.5138 95.844 47.1738 95.72 46.7338 95.72C46.3178 95.72 45.9658 95.812 45.6778 95.996C45.3898 96.172 45.1778 96.46 45.0418 96.86L44.2618 96.38C44.4218 95.932 44.7178 95.572 45.1498 95.3C45.5818 95.02 46.1178 94.88 46.7578 94.88C47.1898 94.88 47.5818 94.956 47.9338 95.108C48.2858 95.252 48.5618 95.476 48.7618 95.78C48.9698 96.076 49.0738 96.46 49.0738 96.932V99.836C49.0738 100.124 49.2258 100.268 49.5298 100.268C49.6818 100.268 49.8298 100.248 49.9738 100.208L49.9258 100.964C49.7658 101.044 49.5578 101.084 49.3018 101.084C49.0698 101.084 48.8618 101.04 48.6778 100.952C48.4938 100.864 48.3498 100.732 48.2458 100.556C48.1418 100.372 48.0898 100.144 48.0898 99.872V99.752L48.3298 99.788C48.2338 100.1 48.0698 100.356 47.8378 100.556C47.6058 100.748 47.3458 100.892 47.0578 100.988C46.7698 101.076 46.4858 101.12 46.2058 101.12C45.8538 101.12 45.5258 101.06 45.2218 100.94C44.9178 100.82 44.6738 100.64 44.4898 100.4C44.3138 100.152 44.2258 99.848 44.2258 99.488C44.2258 99.04 44.3738 98.672 44.6698 98.384C44.9738 98.088 45.3938 97.888 45.9298 97.784L48.3058 97.316V98.108L46.3738 98.504C45.9818 98.584 45.6898 98.696 45.4978 98.84C45.3058 98.984 45.2098 99.184 45.2098 99.44C45.2098 99.688 45.3058 99.892 45.4978 100.052C45.6978 100.204 45.9778 100.28 46.3378 100.28C46.5698 100.28 46.7898 100.252 46.9978 100.196C47.2138 100.132 47.4058 100.04 47.5738 99.92C47.7418 99.792 47.8738 99.636 47.9698 99.452C48.0658 99.26 48.1138 99.036 48.1138 98.78V97.124ZM53.1466 101.12C52.6506 101.12 52.1946 100.996 51.7786 100.748C51.3626 100.5 51.0306 100.144 50.7826 99.68C50.5346 99.208 50.4106 98.648 50.4106 98C50.4106 97.336 50.5426 96.772 50.8066 96.308C51.0706 95.844 51.4186 95.492 51.8506 95.252C52.2826 95.004 52.7466 94.88 53.2426 94.88C53.7386 94.88 54.1666 95.008 54.5266 95.264C54.8946 95.52 55.1386 95.86 55.2586 96.284L55.1386 96.368V92.24H56.0986V101H55.2586L55.1746 99.548L55.3066 99.476C55.2506 99.828 55.1146 100.128 54.8986 100.376C54.6906 100.616 54.4306 100.8 54.1186 100.928C53.8146 101.056 53.4906 101.12 53.1466 101.12ZM53.2426 100.28C53.6266 100.28 53.9586 100.184 54.2386 99.992C54.5266 99.8 54.7466 99.528 54.8986 99.176C55.0586 98.816 55.1386 98.396 55.1386 97.916C55.1386 97.46 55.0586 97.068 54.8986 96.74C54.7466 96.412 54.5306 96.16 54.2506 95.984C53.9786 95.808 53.6586 95.72 53.2906 95.72C52.6826 95.72 52.2106 95.928 51.8746 96.344C51.5386 96.76 51.3706 97.312 51.3706 98C51.3706 98.688 51.5346 99.24 51.8626 99.656C52.1906 100.072 52.6506 100.28 53.2426 100.28ZM63.5599 101.12C63.0639 101.12 62.6079 100.996 62.1919 100.748C61.7759 100.5 61.4439 100.144 61.1959 99.68C60.9479 99.208 60.8239 98.648 60.8239 98C60.8239 97.336 60.9559 96.772 61.2199 96.308C61.4839 95.844 61.8319 95.492 62.2639 95.252C62.6959 95.004 63.1599 94.88 63.6559 94.88C64.1519 94.88 64.5799 95.008 64.9399 95.264C65.3079 95.52 65.5519 95.86 65.6719 96.284L65.5519 96.368V92.24H66.5119V101H65.6719L65.5879 99.548L65.7199 99.476C65.6639 99.828 65.5279 100.128 65.3119 100.376C65.1039 100.616 64.8439 100.8 64.5319 100.928C64.2279 101.056 63.9039 101.12 63.5599 101.12ZM63.6559 100.28C64.0399 100.28 64.3719 100.184 64.6519 99.992C64.9399 99.8 65.1599 99.528 65.3119 99.176C65.4719 98.816 65.5519 98.396 65.5519 97.916C65.5519 97.46 65.4719 97.068 65.3119 96.74C65.1599 96.412 64.9439 96.16 64.6639 95.984C64.3919 95.808 64.0719 95.72 63.7039 95.72C63.0959 95.72 62.6239 95.928 62.2879 96.344C61.9519 96.76 61.7839 97.312 61.7839 98C61.7839 98.688 61.9479 99.24 62.2759 99.656C62.6039 100.072 63.0639 100.28 63.6559 100.28ZM70.6513 101.12C70.0833 101.12 69.5753 100.996 69.1273 100.748C68.6873 100.5 68.3433 100.144 68.0953 99.68C67.8473 99.208 67.7233 98.648 67.7233 98C67.7233 97.352 67.8473 96.796 68.0953 96.332C68.3433 95.86 68.6833 95.5 69.1153 95.252C69.5473 95.004 70.0393 94.88 70.5913 94.88C71.1513 94.88 71.6273 95 72.0193 95.24C72.4193 95.48 72.7233 95.808 72.9313 96.224C73.1393 96.632 73.2433 97.092 73.2433 97.604C73.2433 97.74 73.2393 97.864 73.2313 97.976C73.2233 98.088 73.2113 98.188 73.1953 98.276H68.3473V97.424H72.7753L72.2833 97.52C72.2833 96.944 72.1233 96.5 71.8033 96.188C71.4913 95.876 71.0793 95.72 70.5673 95.72C70.1753 95.72 69.8353 95.812 69.5473 95.996C69.2673 96.172 69.0473 96.432 68.8873 96.776C68.7353 97.112 68.6593 97.52 68.6593 98C68.6593 98.472 68.7393 98.88 68.8993 99.224C69.0593 99.568 69.2833 99.832 69.5713 100.016C69.8673 100.192 70.2193 100.28 70.6273 100.28C71.0673 100.28 71.4233 100.196 71.6953 100.028C71.9753 99.86 72.1993 99.632 72.3673 99.344L73.1233 99.788C72.9713 100.06 72.7753 100.296 72.5353 100.496C72.3033 100.696 72.0273 100.852 71.7073 100.964C71.3953 101.068 71.0433 101.12 70.6513 101.12ZM79.099 93.08V101H78.139V93.08H79.099ZM80.8512 101V95H81.6912L81.7752 96.344L81.6192 96.212C81.7472 95.892 81.9192 95.636 82.1352 95.444C82.3512 95.244 82.5992 95.1 82.8792 95.012C83.1672 94.924 83.4632 94.88 83.7672 94.88C84.1992 94.88 84.5912 94.964 84.9432 95.132C85.2952 95.292 85.5752 95.54 85.7832 95.876C85.9992 96.212 86.1072 96.64 86.1072 97.16V101H85.1472V97.496C85.1472 96.832 85.0032 96.372 84.7152 96.116C84.4352 95.852 84.0872 95.72 83.6712 95.72C83.3832 95.72 83.0952 95.788 82.8072 95.924C82.5192 96.06 82.2792 96.28 82.0872 96.584C81.9032 96.888 81.8112 97.296 81.8112 97.808V101H80.8512ZM92.7328 93.896L92.9488 94.748C92.9408 94.748 92.9288 94.748 92.9128 94.748C92.8968 94.748 92.8808 94.748 92.8648 94.748C92.4728 94.748 92.1688 94.828 91.9528 94.988C91.7448 95.14 91.6408 95.388 91.6408 95.732L91.0528 95.432C91.0528 95.12 91.1248 94.848 91.2688 94.616C91.4128 94.384 91.6088 94.208 91.8568 94.088C92.1048 93.96 92.3768 93.896 92.6728 93.896C92.6808 93.896 92.6888 93.896 92.6968 93.896C92.7128 93.896 92.7248 93.896 92.7328 93.896ZM90.9088 100.232C91.4768 100.232 91.9208 100.364 92.2408 100.628C92.5608 100.884 92.7208 101.228 92.7208 101.66C92.7208 102.052 92.5888 102.392 92.3248 102.68C92.0688 102.968 91.7208 103.188 91.2808 103.34C90.8488 103.5 90.3608 103.58 89.8168 103.58C88.8728 103.58 88.1648 103.42 87.6928 103.1C87.2288 102.78 86.9968 102.396 86.9968 101.948C86.9968 101.628 87.1008 101.34 87.3088 101.084C87.5248 100.836 87.8848 100.696 88.3888 100.664L88.3048 100.844C88.0328 100.772 87.8008 100.652 87.6088 100.484C87.4248 100.308 87.3328 100.056 87.3328 99.728C87.3328 99.4 87.4528 99.12 87.6928 98.888C87.9408 98.648 88.3048 98.5 88.7848 98.444L89.4208 98.768H89.3008C88.9088 98.808 88.6288 98.908 88.4608 99.068C88.3008 99.22 88.2208 99.388 88.2208 99.572C88.2208 99.796 88.3008 99.964 88.4608 100.076C88.6288 100.18 88.8608 100.232 89.1568 100.232H90.9088ZM89.8048 102.776C90.2688 102.776 90.6488 102.728 90.9448 102.632C91.2488 102.536 91.4728 102.412 91.6168 102.26C91.7608 102.108 91.8328 101.944 91.8328 101.768C91.8328 101.552 91.7448 101.38 91.5688 101.252C91.4008 101.124 91.0928 101.06 90.6448 101.06H88.7968C88.5408 101.06 88.3248 101.124 88.1488 101.252C87.9728 101.388 87.8848 101.572 87.8848 101.804C87.8848 102.1 88.0528 102.336 88.3888 102.512C88.7328 102.688 89.2048 102.776 89.8048 102.776ZM89.7208 94.88C90.2008 94.88 90.6248 94.968 90.9928 95.144C91.3688 95.312 91.6608 95.548 91.8688 95.852C92.0768 96.156 92.1808 96.508 92.1808 96.908C92.1808 97.3 92.0768 97.652 91.8688 97.964C91.6608 98.268 91.3688 98.508 90.9928 98.684C90.6248 98.852 90.2008 98.936 89.7208 98.936C88.9288 98.936 88.3208 98.748 87.8968 98.372C87.4728 97.988 87.2608 97.5 87.2608 96.908C87.2608 96.508 87.3648 96.156 87.5728 95.852C87.7888 95.548 88.0808 95.312 88.4488 95.144C88.8168 94.968 89.2408 94.88 89.7208 94.88ZM89.7208 95.66C89.3048 95.66 88.9568 95.776 88.6768 96.008C88.3968 96.232 88.2568 96.532 88.2568 96.908C88.2568 97.276 88.3968 97.576 88.6768 97.808C88.9568 98.04 89.3048 98.156 89.7208 98.156C90.1368 98.156 90.4848 98.04 90.7648 97.808C91.0448 97.576 91.1848 97.276 91.1848 96.908C91.1848 96.532 91.0448 96.232 90.7648 96.008C90.4848 95.776 90.1368 95.66 89.7208 95.66ZM95.9756 101.12C95.4076 101.12 94.8996 100.996 94.4516 100.748C94.0116 100.5 93.6676 100.144 93.4196 99.68C93.1716 99.208 93.0476 98.648 93.0476 98C93.0476 97.352 93.1716 96.796 93.4196 96.332C93.6676 95.86 94.0076 95.5 94.4396 95.252C94.8716 95.004 95.3636 94.88 95.9156 94.88C96.4756 94.88 96.9516 95 97.3436 95.24C97.7436 95.48 98.0476 95.808 98.2556 96.224C98.4636 96.632 98.5676 97.092 98.5676 97.604C98.5676 97.74 98.5636 97.864 98.5556 97.976C98.5476 98.088 98.5356 98.188 98.5196 98.276H93.6716V97.424H98.0996L97.6076 97.52C97.6076 96.944 97.4476 96.5 97.1276 96.188C96.8156 95.876 96.4036 95.72 95.8916 95.72C95.4996 95.72 95.1596 95.812 94.8716 95.996C94.5916 96.172 94.3716 96.432 94.2116 96.776C94.0596 97.112 93.9836 97.52 93.9836 98C93.9836 98.472 94.0636 98.88 94.2236 99.224C94.3836 99.568 94.6076 99.832 94.8956 100.016C95.1916 100.192 95.5436 100.28 95.9516 100.28C96.3916 100.28 96.7476 100.196 97.0196 100.028C97.2996 99.86 97.5236 99.632 97.6916 99.344L98.4476 99.788C98.2956 100.06 98.0996 100.296 97.8596 100.496C97.6276 100.696 97.3516 100.852 97.0316 100.964C96.7196 101.068 96.3676 101.12 95.9756 101.12ZM99.7933 101V95H100.633L100.717 96.344L100.561 96.212C100.689 95.892 100.861 95.636 101.077 95.444C101.293 95.244 101.541 95.1 101.821 95.012C102.109 94.924 102.405 94.88 102.709 94.88C103.141 94.88 103.533 94.964 103.885 95.132C104.237 95.292 104.517 95.54 104.725 95.876C104.941 96.212 105.049 96.64 105.049 97.16V101H104.089V97.496C104.089 96.832 103.945 96.372 103.657 96.116C103.377 95.852 103.029 95.72 102.613 95.72C102.325 95.72 102.037 95.788 101.749 95.924C101.461 96.06 101.221 96.28 101.029 96.584C100.845 96.888 100.753 97.296 100.753 97.808V101H99.7933ZM107.103 93.848C106.887 93.848 106.711 93.784 106.575 93.656C106.447 93.52 106.383 93.344 106.383 93.128C106.383 92.912 106.447 92.74 106.575 92.612C106.711 92.476 106.887 92.408 107.103 92.408C107.319 92.408 107.491 92.476 107.619 92.612C107.755 92.74 107.823 92.912 107.823 93.128C107.823 93.344 107.755 93.52 107.619 93.656C107.491 93.784 107.319 93.848 107.103 93.848ZM107.583 95V101H106.623V95H107.583ZM111.719 101.12C111.151 101.12 110.643 100.996 110.195 100.748C109.755 100.5 109.411 100.144 109.163 99.68C108.915 99.208 108.791 98.648 108.791 98C108.791 97.352 108.915 96.796 109.163 96.332C109.411 95.86 109.751 95.5 110.183 95.252C110.615 95.004 111.107 94.88 111.659 94.88C112.219 94.88 112.695 95 113.087 95.24C113.487 95.48 113.791 95.808 113.999 96.224C114.207 96.632 114.311 97.092 114.311 97.604C114.311 97.74 114.307 97.864 114.299 97.976C114.291 98.088 114.279 98.188 114.263 98.276H109.415V97.424H113.843L113.351 97.52C113.351 96.944 113.191 96.5 112.871 96.188C112.559 95.876 112.147 95.72 111.635 95.72C111.243 95.72 110.903 95.812 110.615 95.996C110.335 96.172 110.115 96.432 109.955 96.776C109.803 97.112 109.727 97.52 109.727 98C109.727 98.472 109.807 98.88 109.967 99.224C110.127 99.568 110.351 99.832 110.639 100.016C110.935 100.192 111.287 100.28 111.695 100.28C112.135 100.28 112.491 100.196 112.763 100.028C113.043 99.86 113.267 99.632 113.435 99.344L114.191 99.788C114.039 100.06 113.843 100.296 113.603 100.496C113.371 100.696 113.095 100.852 112.775 100.964C112.463 101.068 112.111 101.12 111.719 101.12ZM115.536 101V95H116.316L116.448 95.984C116.616 95.616 116.86 95.34 117.18 95.156C117.508 94.972 117.904 94.88 118.368 94.88C118.472 94.88 118.584 94.888 118.704 94.904C118.832 94.92 118.94 94.952 119.028 95L118.86 95.876C118.772 95.844 118.676 95.82 118.572 95.804C118.468 95.788 118.32 95.78 118.128 95.78C117.88 95.78 117.628 95.852 117.372 95.996C117.124 96.14 116.916 96.36 116.748 96.656C116.58 96.944 116.496 97.312 116.496 97.76V101H115.536ZM120.795 95V101H119.835V95H120.795ZM120.639 92H121.683L120.507 94.004H119.727L120.639 92ZM125.926 97.124C125.926 96.676 125.806 96.332 125.566 96.092C125.326 95.844 124.986 95.72 124.546 95.72C124.13 95.72 123.778 95.812 123.49 95.996C123.202 96.172 122.99 96.46 122.854 96.86L122.074 96.38C122.234 95.932 122.53 95.572 122.962 95.3C123.394 95.02 123.93 94.88 124.57 94.88C125.002 94.88 125.394 94.956 125.746 95.108C126.098 95.252 126.374 95.476 126.574 95.78C126.782 96.076 126.886 96.46 126.886 96.932V99.836C126.886 100.124 127.038 100.268 127.342 100.268C127.494 100.268 127.642 100.248 127.786 100.208L127.738 100.964C127.578 101.044 127.37 101.084 127.114 101.084C126.882 101.084 126.674 101.04 126.49 100.952C126.306 100.864 126.162 100.732 126.058 100.556C125.954 100.372 125.902 100.144 125.902 99.872V99.752L126.142 99.788C126.046 100.1 125.882 100.356 125.65 100.556C125.418 100.748 125.158 100.892 124.87 100.988C124.582 101.076 124.298 101.12 124.018 101.12C123.666 101.12 123.338 101.06 123.034 100.94C122.73 100.82 122.486 100.64 122.302 100.4C122.126 100.152 122.038 99.848 122.038 99.488C122.038 99.04 122.186 98.672 122.482 98.384C122.786 98.088 123.206 97.888 123.742 97.784L126.118 97.316V98.108L124.186 98.504C123.794 98.584 123.502 98.696 123.31 98.84C123.118 98.984 123.022 99.184 123.022 99.44C123.022 99.688 123.118 99.892 123.31 100.052C123.51 100.204 123.79 100.28 124.15 100.28C124.382 100.28 124.602 100.252 124.81 100.196C125.026 100.132 125.218 100.04 125.386 99.92C125.554 99.792 125.686 99.636 125.782 99.452C125.878 99.26 125.926 99.036 125.926 98.78V97.124ZM14.456 113.12C13.96 113.12 13.504 112.996 13.088 112.748C12.672 112.5 12.34 112.144 12.092 111.68C11.844 111.208 11.72 110.648 11.72 110C11.72 109.336 11.852 108.772 12.116 108.308C12.38 107.844 12.728 107.492 13.16 107.252C13.592 107.004 14.056 106.88 14.552 106.88C15.048 106.88 15.476 107.008 15.836 107.264C16.204 107.52 16.448 107.86 16.568 108.284L16.448 108.368V104.24H17.408V113H16.568L16.484 111.548L16.616 111.476C16.56 111.828 16.424 112.128 16.208 112.376C16 112.616 15.74 112.8 15.428 112.928C15.124 113.056 14.8 113.12 14.456 113.12ZM14.552 112.28C14.936 112.28 15.268 112.184 15.548 111.992C15.836 111.8 16.056 111.528 16.208 111.176C16.368 110.816 16.448 110.396 16.448 109.916C16.448 109.46 16.368 109.068 16.208 108.74C16.056 108.412 15.84 108.16 15.56 107.984C15.288 107.808 14.968 107.72 14.6 107.72C13.992 107.72 13.52 107.928 13.184 108.344C12.848 108.76 12.68 109.312 12.68 110C12.68 110.688 12.844 111.24 13.172 111.656C13.5 112.072 13.96 112.28 14.552 112.28ZM21.5474 113.12C20.9794 113.12 20.4714 112.996 20.0234 112.748C19.5834 112.5 19.2394 112.144 18.9914 111.68C18.7434 111.208 18.6194 110.648 18.6194 110C18.6194 109.352 18.7434 108.796 18.9914 108.332C19.2394 107.86 19.5794 107.5 20.0114 107.252C20.4434 107.004 20.9354 106.88 21.4874 106.88C22.0474 106.88 22.5234 107 22.9154 107.24C23.3154 107.48 23.6194 107.808 23.8274 108.224C24.0354 108.632 24.1394 109.092 24.1394 109.604C24.1394 109.74 24.1354 109.864 24.1274 109.976C24.1194 110.088 24.1074 110.188 24.0914 110.276H19.2434V109.424H23.6714L23.1794 109.52C23.1794 108.944 23.0194 108.5 22.6994 108.188C22.3874 107.876 21.9754 107.72 21.4634 107.72C21.0714 107.72 20.7314 107.812 20.4434 107.996C20.1634 108.172 19.9434 108.432 19.7834 108.776C19.6314 109.112 19.5554 109.52 19.5554 110C19.5554 110.472 19.6354 110.88 19.7954 111.224C19.9554 111.568 20.1794 111.832 20.4674 112.016C20.7634 112.192 21.1154 112.28 21.5234 112.28C21.9634 112.28 22.3194 112.196 22.5914 112.028C22.8714 111.86 23.0954 111.632 23.2634 111.344L24.0194 111.788C23.8674 112.06 23.6714 112.296 23.4314 112.496C23.1994 112.696 22.9234 112.852 22.6034 112.964C22.2914 113.068 21.9394 113.12 21.5474 113.12ZM31.6631 104.96C32.3831 104.96 33.0151 105.084 33.5591 105.332C34.1031 105.58 34.5671 105.948 34.9511 106.436L34.0271 107.504C33.6991 107.088 33.3391 106.784 32.9471 106.592C32.5631 106.392 32.1151 106.292 31.6031 106.292C31.2671 106.292 30.9871 106.336 30.7631 106.424C30.5471 106.512 30.3871 106.628 30.2831 106.772C30.1871 106.916 30.1391 107.076 30.1391 107.252C30.1391 107.468 30.2231 107.652 30.3911 107.804C30.5591 107.948 30.8471 108.068 31.2551 108.164L32.7311 108.5C33.5151 108.676 34.0751 108.94 34.4111 109.292C34.7551 109.636 34.9271 110.084 34.9271 110.636C34.9271 111.156 34.7911 111.604 34.5191 111.98C34.2471 112.348 33.8671 112.632 33.3791 112.832C32.8911 113.024 32.3311 113.12 31.6991 113.12C31.1471 113.12 30.6391 113.056 30.1751 112.928C29.7191 112.792 29.3111 112.608 28.9511 112.376C28.5911 112.144 28.2911 111.876 28.0511 111.572L28.9871 110.456C29.1711 110.712 29.3991 110.94 29.6711 111.14C29.9431 111.34 30.2511 111.5 30.5951 111.62C30.9471 111.732 31.3151 111.788 31.6991 111.788C32.0271 111.788 32.3031 111.752 32.5271 111.68C32.7591 111.6 32.9311 111.492 33.0431 111.356C33.1631 111.212 33.2231 111.04 33.2231 110.84C33.2231 110.632 33.1511 110.456 33.0071 110.312C32.8711 110.16 32.6151 110.044 32.2391 109.964L30.6311 109.604C30.1671 109.492 29.7671 109.348 29.4311 109.172C29.1031 108.988 28.8511 108.756 28.6751 108.476C28.5071 108.188 28.4231 107.848 28.4231 107.456C28.4231 106.984 28.5511 106.56 28.8071 106.184C29.0631 105.808 29.4311 105.512 29.9111 105.296C30.3991 105.072 30.9831 104.96 31.6631 104.96ZM36.5186 106.136C36.1746 106.136 35.9186 106.064 35.7506 105.92C35.5826 105.768 35.4986 105.548 35.4986 105.26C35.4986 104.964 35.5826 104.744 35.7506 104.6C35.9186 104.448 36.1746 104.372 36.5186 104.372C36.8626 104.372 37.1186 104.448 37.2866 104.6C37.4546 104.744 37.5386 104.964 37.5386 105.26C37.5386 105.548 37.4546 105.768 37.2866 105.92C37.1186 106.064 36.8626 106.136 36.5186 106.136ZM37.3346 107V113H35.6906V107H37.3346ZM40.8773 113.12C40.2693 113.12 39.7133 113.012 39.2093 112.796C38.7133 112.58 38.3093 112.276 37.9973 111.884L38.9453 110.924C39.1373 111.212 39.3933 111.448 39.7133 111.632C40.0333 111.816 40.4133 111.908 40.8533 111.908C41.1653 111.908 41.4133 111.864 41.5973 111.776C41.7893 111.68 41.8853 111.532 41.8853 111.332C41.8853 111.204 41.8413 111.096 41.7533 111.008C41.6653 110.912 41.4893 110.836 41.2253 110.78L40.1693 110.564C39.4733 110.42 38.9773 110.204 38.6813 109.916C38.3933 109.62 38.2493 109.24 38.2493 108.776C38.2493 108.448 38.3453 108.14 38.5373 107.852C38.7373 107.564 39.0333 107.332 39.4253 107.156C39.8173 106.972 40.3053 106.88 40.8893 106.88C41.4893 106.88 42.0093 106.976 42.4493 107.168C42.8973 107.352 43.2493 107.628 43.5053 107.996L42.5213 108.956C42.3453 108.676 42.1133 108.464 41.8253 108.32C41.5453 108.168 41.2493 108.092 40.9373 108.092C40.7133 108.092 40.5213 108.116 40.3613 108.164C40.2013 108.212 40.0813 108.28 40.0013 108.368C39.9213 108.448 39.8813 108.552 39.8813 108.68C39.8813 108.808 39.9373 108.92 40.0493 109.016C40.1613 109.104 40.3653 109.18 40.6613 109.244L41.8853 109.496C42.4773 109.616 42.9013 109.82 43.1573 110.108C43.4133 110.388 43.5413 110.728 43.5413 111.128C43.5413 111.512 43.4373 111.856 43.2293 112.16C43.0293 112.456 42.7293 112.692 42.3293 112.868C41.9373 113.036 41.4533 113.12 40.8773 113.12ZM46.3763 105.164V111.044C46.3763 111.332 46.4483 111.544 46.5923 111.68C46.7443 111.808 46.9483 111.872 47.2043 111.872C47.4043 111.872 47.5803 111.844 47.7323 111.788C47.8843 111.724 48.0203 111.64 48.1403 111.536L48.4043 112.628C48.2123 112.78 47.9723 112.9 47.6843 112.988C47.3963 113.076 47.0923 113.12 46.7723 113.12C46.3723 113.12 46.0163 113.06 45.7043 112.94C45.4003 112.82 45.1603 112.628 44.9843 112.364C44.8163 112.1 44.7323 111.748 44.7323 111.308V105.62L46.3763 105.164ZM48.2963 107V108.224H43.6283V107H48.2963ZM51.5925 113.12C50.9605 113.12 50.4085 112.996 49.9365 112.748C49.4725 112.5 49.1125 112.144 48.8565 111.68C48.6005 111.216 48.4725 110.656 48.4725 110C48.4725 109.344 48.6005 108.784 48.8565 108.32C49.1125 107.856 49.4685 107.5 49.9245 107.252C50.3885 107.004 50.9165 106.88 51.5085 106.88C52.1165 106.88 52.6325 107.004 53.0565 107.252C53.4805 107.492 53.8045 107.824 54.0285 108.248C54.2525 108.664 54.3645 109.14 54.3645 109.676C54.3645 109.836 54.3605 109.988 54.3525 110.132C54.3445 110.276 54.3325 110.404 54.3165 110.516H49.5285V109.376H53.5965L52.8045 109.664C52.8045 109.16 52.6885 108.772 52.4565 108.5C52.2325 108.228 51.9125 108.092 51.4965 108.092C51.1925 108.092 50.9285 108.164 50.7045 108.308C50.4885 108.452 50.3245 108.668 50.2125 108.956C50.1005 109.236 50.0445 109.592 50.0445 110.024C50.0445 110.448 50.1045 110.8 50.2245 111.08C50.3525 111.352 50.5285 111.556 50.7525 111.692C50.9845 111.828 51.2605 111.896 51.5805 111.896C51.9325 111.896 52.2165 111.828 52.4325 111.692C52.6485 111.556 52.8165 111.368 52.9365 111.128L54.2445 111.632C54.1165 111.944 53.9205 112.212 53.6565 112.436C53.4005 112.66 53.0925 112.832 52.7325 112.952C52.3805 113.064 52.0005 113.12 51.5925 113.12ZM55.1578 113V107H56.6338L56.6938 108.08C56.8938 107.68 57.1658 107.38 57.5098 107.18C57.8618 106.98 58.2498 106.88 58.6738 106.88C59.1058 106.88 59.4938 106.98 59.8378 107.18C60.1898 107.38 60.4538 107.676 60.6298 108.068C60.7578 107.804 60.9298 107.584 61.1458 107.408C61.3618 107.232 61.6018 107.1 61.8658 107.012C62.1298 106.924 62.3978 106.88 62.6698 106.88C63.0618 106.88 63.4178 106.96 63.7378 107.12C64.0658 107.28 64.3258 107.52 64.5178 107.84C64.7098 108.16 64.8058 108.568 64.8058 109.064V113H63.1618V109.388C63.1618 108.948 63.0658 108.636 62.8738 108.452C62.6818 108.268 62.4338 108.176 62.1298 108.176C61.8898 108.176 61.6658 108.236 61.4578 108.356C61.2578 108.476 61.0978 108.656 60.9778 108.896C60.8658 109.128 60.8098 109.42 60.8098 109.772V113H59.1658V109.388C59.1658 108.948 59.0658 108.636 58.8658 108.452C58.6738 108.268 58.4258 108.176 58.1218 108.176C57.9138 108.176 57.7058 108.232 57.4978 108.344C57.2978 108.456 57.1298 108.632 56.9938 108.872C56.8658 109.112 56.8018 109.428 56.8018 109.82V113H55.1578ZM69.3215 109.172C69.3215 108.828 69.2215 108.56 69.0215 108.368C68.8295 108.176 68.5735 108.08 68.2535 108.08C67.9575 108.08 67.6975 108.156 67.4735 108.308C67.2495 108.46 67.0855 108.712 66.9815 109.064L65.5775 108.632C65.7135 108.104 66.0095 107.68 66.4655 107.36C66.9295 107.04 67.5495 106.88 68.3255 106.88C68.8535 106.88 69.3135 106.964 69.7055 107.132C70.0975 107.292 70.4015 107.536 70.6175 107.864C70.8415 108.192 70.9535 108.604 70.9535 109.1V111.536C70.9535 111.84 71.0975 111.992 71.3855 111.992C71.5215 111.992 71.6495 111.972 71.7695 111.932L71.6735 112.952C71.4655 113.056 71.2055 113.108 70.8935 113.108C70.6135 113.108 70.3615 113.06 70.1375 112.964C69.9135 112.868 69.7375 112.724 69.6095 112.532C69.4815 112.332 69.4175 112.084 69.4175 111.788V111.74L69.7055 111.692C69.6575 111.996 69.5255 112.256 69.3095 112.472C69.0935 112.68 68.8295 112.84 68.5175 112.952C68.2135 113.064 67.8975 113.12 67.5695 113.12C67.1615 113.12 66.8095 113.06 66.5135 112.94C66.2175 112.812 65.9895 112.628 65.8295 112.388C65.6695 112.148 65.5895 111.852 65.5895 111.5C65.5895 111.052 65.7335 110.688 66.0215 110.408C66.3095 110.12 66.7215 109.924 67.2575 109.82L69.5135 109.364L69.5015 110.384L68.0615 110.672C67.7895 110.728 67.5815 110.804 67.4375 110.9C67.3015 110.988 67.2335 111.136 67.2335 111.344C67.2335 111.544 67.3055 111.696 67.4495 111.8C67.6015 111.904 67.7815 111.956 67.9895 111.956C68.1575 111.956 68.3215 111.936 68.4815 111.896C68.6415 111.856 68.7855 111.792 68.9135 111.704C69.0415 111.616 69.1415 111.496 69.2135 111.344C69.2855 111.192 69.3215 111.008 69.3215 110.792V109.172ZM74.5921 113.12C73.9841 113.12 73.4281 113.012 72.9241 112.796C72.4281 112.58 72.0241 112.276 71.7121 111.884L72.6601 110.924C72.8521 111.212 73.1081 111.448 73.4281 111.632C73.7481 111.816 74.1281 111.908 74.5681 111.908C74.8801 111.908 75.1281 111.864 75.3121 111.776C75.5041 111.68 75.6001 111.532 75.6001 111.332C75.6001 111.204 75.5561 111.096 75.4681 111.008C75.3801 110.912 75.2041 110.836 74.9401 110.78L73.8841 110.564C73.1881 110.42 72.6921 110.204 72.3961 109.916C72.1081 109.62 71.9641 109.24 71.9641 108.776C71.9641 108.448 72.0601 108.14 72.2521 107.852C72.4521 107.564 72.7481 107.332 73.1401 107.156C73.5321 106.972 74.0201 106.88 74.6041 106.88C75.2041 106.88 75.7241 106.976 76.1641 107.168C76.6121 107.352 76.9641 107.628 77.2201 107.996L76.2361 108.956C76.0601 108.676 75.8281 108.464 75.5401 108.32C75.2601 108.168 74.9641 108.092 74.6521 108.092C74.4281 108.092 74.2361 108.116 74.0761 108.164C73.9161 108.212 73.7961 108.28 73.7161 108.368C73.6361 108.448 73.5961 108.552 73.5961 108.68C73.5961 108.808 73.6521 108.92 73.7641 109.016C73.8761 109.104 74.0801 109.18 74.3761 109.244L75.6001 109.496C76.1921 109.616 76.6161 109.82 76.8721 110.108C77.1281 110.388 77.2561 110.728 77.2561 111.128C77.2561 111.512 77.1521 111.856 76.9441 112.16C76.7441 112.456 76.4441 112.692 76.0441 112.868C75.6521 113.036 75.1681 113.12 74.5921 113.12ZM83.8191 113.12C83.1871 113.12 82.6351 112.996 82.1631 112.748C81.6991 112.5 81.3391 112.144 81.0831 111.68C80.8271 111.216 80.6991 110.656 80.6991 110C80.6991 109.344 80.8271 108.784 81.0831 108.32C81.3391 107.856 81.6951 107.5 82.1511 107.252C82.6151 107.004 83.1431 106.88 83.7351 106.88C84.3431 106.88 84.8591 107.004 85.2831 107.252C85.7071 107.492 86.0311 107.824 86.2551 108.248C86.4791 108.664 86.5911 109.14 86.5911 109.676C86.5911 109.836 86.5871 109.988 86.5791 110.132C86.5711 110.276 86.5591 110.404 86.5431 110.516H81.7551V109.376H85.8231L85.0311 109.664C85.0311 109.16 84.9151 108.772 84.6831 108.5C84.4591 108.228 84.1391 108.092 83.7231 108.092C83.4191 108.092 83.1551 108.164 82.9311 108.308C82.7151 108.452 82.5511 108.668 82.4391 108.956C82.3271 109.236 82.2711 109.592 82.2711 110.024C82.2711 110.448 82.3311 110.8 82.4511 111.08C82.5791 111.352 82.7551 111.556 82.9791 111.692C83.2111 111.828 83.4871 111.896 83.8071 111.896C84.1591 111.896 84.4431 111.828 84.6591 111.692C84.8751 111.556 85.0431 111.368 85.1631 111.128L86.4711 111.632C86.3431 111.944 86.1471 112.212 85.8831 112.436C85.6271 112.66 85.3191 112.832 84.9591 112.952C84.6071 113.064 84.2271 113.12 83.8191 113.12ZM92.2763 105.08V113H90.6203V105.08H92.2763ZM93.532 113V107H95.008L95.104 108.8L94.9 108.608C94.996 108.216 95.148 107.892 95.356 107.636C95.564 107.38 95.816 107.192 96.112 107.072C96.416 106.944 96.748 106.88 97.108 106.88C97.524 106.88 97.892 106.96 98.212 107.12C98.54 107.28 98.796 107.524 98.98 107.852C99.172 108.172 99.268 108.576 99.268 109.064V113H97.624V109.532C97.624 109.02 97.524 108.668 97.324 108.476C97.124 108.276 96.864 108.176 96.544 108.176C96.32 108.176 96.1 108.232 95.884 108.344C95.676 108.448 95.504 108.62 95.368 108.86C95.24 109.1 95.176 109.42 95.176 109.82V113H93.532ZM102.991 104.252C103.271 104.252 103.523 104.284 103.747 104.348C103.979 104.404 104.151 104.476 104.263 104.564L104.035 105.656C103.947 105.6 103.847 105.556 103.735 105.524C103.623 105.492 103.491 105.476 103.339 105.476C103.027 105.476 102.779 105.548 102.595 105.692C102.411 105.828 102.319 106.064 102.319 106.4V107.228L102.391 107.552V113H100.747V106.28C100.747 105.944 100.803 105.648 100.915 105.392C101.027 105.136 101.183 104.924 101.383 104.756C101.583 104.588 101.819 104.464 102.091 104.384C102.371 104.296 102.671 104.252 102.991 104.252ZM104.215 107V108.224H99.7028V107H104.215ZM107.232 106.88C107.84 106.88 108.372 107.004 108.828 107.252C109.292 107.5 109.652 107.856 109.908 108.32C110.172 108.784 110.304 109.344 110.304 110C110.304 110.648 110.172 111.208 109.908 111.68C109.652 112.144 109.292 112.5 108.828 112.748C108.372 112.996 107.84 113.12 107.232 113.12C106.632 113.12 106.1 112.996 105.636 112.748C105.172 112.5 104.808 112.144 104.544 111.68C104.288 111.208 104.16 110.648 104.16 110C104.16 109.344 104.288 108.784 104.544 108.32C104.808 107.856 105.172 107.5 105.636 107.252C106.1 107.004 106.632 106.88 107.232 106.88ZM107.232 108.104C106.928 108.104 106.668 108.176 106.452 108.32C106.244 108.456 106.084 108.664 105.972 108.944C105.86 109.224 105.804 109.576 105.804 110C105.804 110.424 105.86 110.776 105.972 111.056C106.084 111.336 106.244 111.548 106.452 111.692C106.668 111.828 106.928 111.896 107.232 111.896C107.528 111.896 107.78 111.828 107.988 111.692C108.204 111.548 108.368 111.336 108.48 111.056C108.592 110.776 108.648 110.424 108.648 110C108.648 109.576 108.592 109.224 108.48 108.944C108.368 108.664 108.204 108.456 107.988 108.32C107.78 108.176 107.528 108.104 107.232 108.104ZM111.08 113V107H112.508L112.616 108.176C112.776 107.76 113.008 107.44 113.312 107.216C113.624 106.992 114.012 106.88 114.476 106.88C114.612 106.88 114.736 106.892 114.848 106.916C114.96 106.94 115.052 106.972 115.124 107.012L114.932 108.392C114.852 108.36 114.752 108.336 114.632 108.32C114.52 108.304 114.372 108.296 114.188 108.296C113.948 108.296 113.716 108.356 113.492 108.476C113.268 108.588 113.084 108.764 112.94 109.004C112.796 109.236 112.724 109.532 112.724 109.892V113H111.08ZM115.542 113V107H117.018L117.078 108.08C117.278 107.68 117.55 107.38 117.894 107.18C118.246 106.98 118.634 106.88 119.058 106.88C119.49 106.88 119.878 106.98 120.222 107.18C120.574 107.38 120.838 107.676 121.014 108.068C121.142 107.804 121.314 107.584 121.53 107.408C121.746 107.232 121.986 107.1 122.25 107.012C122.514 106.924 122.782 106.88 123.054 106.88C123.446 106.88 123.802 106.96 124.122 107.12C124.45 107.28 124.71 107.52 124.902 107.84C125.094 108.16 125.19 108.568 125.19 109.064V113H123.546V109.388C123.546 108.948 123.45 108.636 123.258 108.452C123.066 108.268 122.818 108.176 122.514 108.176C122.274 108.176 122.05 108.236 121.842 108.356C121.642 108.476 121.482 108.656 121.362 108.896C121.25 109.128 121.194 109.42 121.194 109.772V113H119.55V109.388C119.55 108.948 119.45 108.636 119.25 108.452C119.058 108.268 118.81 108.176 118.506 108.176C118.298 108.176 118.09 108.232 117.882 108.344C117.682 108.456 117.514 108.632 117.378 108.872C117.25 109.112 117.186 109.428 117.186 109.82V113H115.542ZM129.706 109.172C129.706 108.828 129.606 108.56 129.406 108.368C129.214 108.176 128.958 108.08 128.638 108.08C128.342 108.08 128.082 108.156 127.858 108.308C127.634 108.46 127.47 108.712 127.366 109.064L125.962 108.632C126.098 108.104 126.394 107.68 126.85 107.36C127.314 107.04 127.934 106.88 128.71 106.88C129.238 106.88 129.698 106.964 130.09 107.132C130.482 107.292 130.786 107.536 131.002 107.864C131.226 108.192 131.338 108.604 131.338 109.1V111.536C131.338 111.84 131.482 111.992 131.77 111.992C131.906 111.992 132.034 111.972 132.154 111.932L132.058 112.952C131.85 113.056 131.59 113.108 131.278 113.108C130.998 113.108 130.746 113.06 130.522 112.964C130.298 112.868 130.122 112.724 129.994 112.532C129.866 112.332 129.802 112.084 129.802 111.788V111.74L130.09 111.692C130.042 111.996 129.91 112.256 129.694 112.472C129.478 112.68 129.214 112.84 128.902 112.952C128.598 113.064 128.282 113.12 127.954 113.12C127.546 113.12 127.194 113.06 126.898 112.94C126.602 112.812 126.374 112.628 126.214 112.388C126.054 112.148 125.974 111.852 125.974 111.5C125.974 111.052 126.118 110.688 126.406 110.408C126.694 110.12 127.106 109.924 127.642 109.82L129.898 109.364L129.886 110.384L128.446 110.672C128.174 110.728 127.966 110.804 127.822 110.9C127.686 110.988 127.618 111.136 127.618 111.344C127.618 111.544 127.69 111.696 127.834 111.8C127.986 111.904 128.166 111.956 128.374 111.956C128.542 111.956 128.706 111.936 128.866 111.896C129.026 111.856 129.17 111.792 129.298 111.704C129.426 111.616 129.526 111.496 129.598 111.344C129.67 111.192 129.706 111.008 129.706 110.792V109.172ZM128.77 104.096H130.354L129.154 106.136H127.942L128.77 104.096ZM134.466 105.164V111.044C134.466 111.332 134.538 111.544 134.682 111.68C134.834 111.808 135.038 111.872 135.294 111.872C135.494 111.872 135.67 111.844 135.822 111.788C135.974 111.724 136.11 111.64 136.23 111.536L136.494 112.628C136.302 112.78 136.062 112.9 135.774 112.988C135.486 113.076 135.182 113.12 134.862 113.12C134.462 113.12 134.106 113.06 133.794 112.94C133.49 112.82 133.25 112.628 133.074 112.364C132.906 112.1 132.822 111.748 132.822 111.308V105.62L134.466 105.164ZM136.386 107V108.224H131.718V107H136.386ZM137.726 106.136C137.382 106.136 137.126 106.064 136.958 105.92C136.79 105.768 136.706 105.548 136.706 105.26C136.706 104.964 136.79 104.744 136.958 104.6C137.126 104.448 137.382 104.372 137.726 104.372C138.07 104.372 138.326 104.448 138.494 104.6C138.662 104.744 138.746 104.964 138.746 105.26C138.746 105.548 138.662 105.768 138.494 105.92C138.326 106.064 138.07 106.136 137.726 106.136ZM138.542 107V113H136.898V107H138.542ZM142.409 106.88C142.945 106.88 143.397 106.96 143.765 107.12C144.141 107.272 144.441 107.484 144.665 107.756C144.897 108.02 145.061 108.316 145.157 108.644L143.621 109.196C143.541 108.836 143.405 108.564 143.213 108.38C143.021 108.196 142.761 108.104 142.433 108.104C142.129 108.104 141.869 108.176 141.653 108.32C141.437 108.456 141.273 108.668 141.161 108.956C141.049 109.236 140.993 109.588 140.993 110.012C140.993 110.436 141.049 110.788 141.161 111.068C141.281 111.348 141.449 111.556 141.665 111.692C141.889 111.828 142.149 111.896 142.445 111.896C142.685 111.896 142.889 111.856 143.057 111.776C143.225 111.688 143.361 111.564 143.465 111.404C143.577 111.244 143.653 111.052 143.693 110.828L145.181 111.308C145.093 111.668 144.929 111.984 144.689 112.256C144.449 112.528 144.141 112.74 143.765 112.892C143.389 113.044 142.953 113.12 142.457 113.12C141.841 113.12 141.297 112.996 140.825 112.748C140.353 112.5 139.989 112.144 139.733 111.68C139.477 111.216 139.349 110.656 139.349 110C139.349 109.344 139.477 108.784 139.733 108.32C139.989 107.856 140.349 107.5 140.813 107.252C141.277 107.004 141.809 106.88 142.409 106.88ZM149.279 109.172C149.279 108.828 149.179 108.56 148.979 108.368C148.787 108.176 148.531 108.08 148.211 108.08C147.915 108.08 147.655 108.156 147.431 108.308C147.207 108.46 147.043 108.712 146.939 109.064L145.535 108.632C145.671 108.104 145.967 107.68 146.423 107.36C146.887 107.04 147.507 106.88 148.283 106.88C148.811 106.88 149.271 106.964 149.663 107.132C150.055 107.292 150.359 107.536 150.575 107.864C150.799 108.192 150.911 108.604 150.911 109.1V111.536C150.911 111.84 151.055 111.992 151.343 111.992C151.479 111.992 151.607 111.972 151.727 111.932L151.631 112.952C151.423 113.056 151.163 113.108 150.851 113.108C150.571 113.108 150.319 113.06 150.095 112.964C149.871 112.868 149.695 112.724 149.567 112.532C149.439 112.332 149.375 112.084 149.375 111.788V111.74L149.663 111.692C149.615 111.996 149.483 112.256 149.267 112.472C149.051 112.68 148.787 112.84 148.475 112.952C148.171 113.064 147.855 113.12 147.527 113.12C147.119 113.12 146.767 113.06 146.471 112.94C146.175 112.812 145.947 112.628 145.787 112.388C145.627 112.148 145.547 111.852 145.547 111.5C145.547 111.052 145.691 110.688 145.979 110.408C146.267 110.12 146.679 109.924 147.215 109.82L149.471 109.364L149.459 110.384L148.019 110.672C147.747 110.728 147.539 110.804 147.395 110.9C147.259 110.988 147.191 111.136 147.191 111.344C147.191 111.544 147.263 111.696 147.407 111.8C147.559 111.904 147.739 111.956 147.947 111.956C148.115 111.956 148.279 111.936 148.439 111.896C148.599 111.856 148.743 111.792 148.871 111.704C148.999 111.616 149.099 111.496 149.171 111.344C149.243 111.192 149.279 111.008 149.279 110.792V109.172Z" fill="black"/>
</svg>
